<?xml version="1.0" standalone="yes"?>
<svg width="1124" height="635">
<path style="fill:#edeeef; stroke:none;" d="M0 0L0 1L1124 1L1095 0L1028 0L798 0L0 0z"/>
<path style="fill:#d1d1d1; stroke:none;" d="M0 1L0 2L1124 2L1095 1L1028 1L798 1L0 1z"/>
<path style="fill:#bfd3de; stroke:none;" d="M0 2L0 3L1124 3L1095 2L1028 2L798 2L0 2z"/>
<path style="fill:#00517c; stroke:none;" d="M0 3L0 635L1124 635L1124 3L0 3z"/>
<path style="fill:#236e6f; stroke:none;" d="M185 83L185 84L320 84C309.258 79.4924 290.682 83 279 83L185 83z"/>
<path style="fill:#6aa855; stroke:none;" d="M185 84L185 224L189 224L189 87L188 87L188 223L186 223L186 126C186 114.056 189.607 94.98 185 84z"/>
<path style="fill:#8bc34a; stroke:none;" d="M186 84L186 223L188 223L188 87L320 87L320 84L186 84z"/>
<path style="fill:#236e6f; stroke:none;" d="M189 87L189 88L320 88C309.496 83.5923 291.42 87 280 87L189 87z"/>
<path style="fill:#aec8d5; stroke:none;" d="M459 178L459 185L460 185L460 179L466 179L459 178z"/>
<path style="fill:#d9e5eb; stroke:none;" d="M832 178L832 185L833 185L833 179L838 179L838 185L839 185L839 178L832 178z"/>
<path style="fill:#ffffff; stroke:none;" d="M460 179L460 185L466 185L466 179L460 179z"/>
<path style="fill:#76a2b9; stroke:none;" d="M621 179L621 183L622 183L621 179z"/>
<path style="fill:#ffffff; stroke:none;" d="M622 179L622 184L627 184L627 197C598.24 178.017 597.88 243.221 627 224C627.982 228.581 634.116 227 638 227L638 223C631.382 221.62 632 216.792 632 211L632 179L622 179z"/>
<path style="fill:#d9e5eb; stroke:none;" d="M632 179L632 222L633 222C633 209.781 636.711 190.225 632 179z"/>
<path style="fill:#ffffff; stroke:none;" d="M833 179L833 185L838 185L838 179L833 179M882 179L882 184L887 184L887 223L882 223L882 227L898 227L898 223L893 223L893 179L882 179z"/>
<path style="fill:#aec8d5; stroke:none;" d="M240 181L240 182L248 182L240 181z"/>
<path style="fill:#5088a5; stroke:none;" d="M248.667 181.333L249.333 181.667L248.667 181.333z"/>
<path style="fill:#ffffff; stroke:none;" d="M260 206L246 206L246 210L255 210C254.999 220.138 248.036 227.571 238.044 219.581C227.982 211.535 229.082 191.907 242.001 187.163C246.009 185.691 249.993 187.411 254 188L254 195L259 195C258.999 182.403 244.757 176.511 234.004 184.434C225.714 190.541 225.767 199.651 226.015 209C226.379 222.755 247.1 235.464 258.397 224.03C261.885 220.499 260 210.631 260 206z"/>
<path style="fill:#6596b0; stroke:none;" d="M252.667 182.333L253.333 182.667L252.667 182.333z"/>
<path style="fill:#ffffff; stroke:none;" d="M559 223L559 227L571 227L568 223C572.703 210.908 587.608 210.136 592 223L589 227L601 227L601 223C593.862 218.649 590.151 200.806 587.286 193C586.006 189.515 584.93 182.296 580.053 182.296C575.444 182.296 574.232 189.679 573.066 193C570.243 201.037 566.424 218.507 559 223z"/>
<path style="fill:#86acc1; stroke:none;" d="M257 184L258 185L257 184z"/>
<path style="fill:#76a2b9; stroke:none;" d="M626 184L626 197L627 197L626 184M886 184L887 185L886 184z"/>
<path style="fill:#aec8d5; stroke:none;" d="M436 185L436 194L437 194L437 186L442 186L442 194L443 194L443 185L436 185M243 186L243 187L248 187L243 186z"/>
<path style="fill:#76a2b9; stroke:none;" d="M259 186L259 195L260 195L259 186z"/>
<path style="fill:#ffffff; stroke:none;" d="M437 186L437 194L431 194L431 198C443.325 199.966 432.643 217.608 438.603 224.682C441.398 227.999 447.148 227 451 227L451 223C438.48 222.593 437.534 198.406 450 198L450 194L442 194L442 186L437 186z"/>
<path style="fill:#86acc1; stroke:none;" d="M240 187L241 188L240 187M238 188L239 189L238 188z"/>
<path style="fill:#76a2b9; stroke:none;" d="M253.333 188.667L253.667 189.333L253.333 188.667z"/>
<path style="fill:#00517c; stroke:none;" d="M580 191L573 209L587 209L580 191z"/>
<path style="fill:#aec8d5; stroke:none;" d="M278 193L278 194L285 194L278 193M317 193L317 194L322 194L317 193z"/>
<path style="fill:#5088a5; stroke:none;" d="M322.667 193.333L323.333 193.667L322.667 193.333z"/>
<path style="fill:#aec8d5; stroke:none;" d="M351 193L351 194L356 194L351 193z"/>
<path style="fill:#6596b0; stroke:none;" d="M356.667 193.333L357.333 193.667L356.667 193.333z"/>
<path style="fill:#aec8d5; stroke:none;" d="M389 193L389 194L394 194L389 193M408 193L408 194L416 194L408 193M522 193L522 194L529 194L522 193z"/>
<path style="fill:#5088a5; stroke:none;" d="M581.333 193.667L581.667 194.333L581.333 193.667z"/>
<path style="fill:#b9cfdb; stroke:none;" d="M587.333 193.667L587.667 194.333L587.333 193.667z"/>
<path style="fill:#aec8d5; stroke:none;" d="M614 193L614 194L621 194L614 193M689 193L689 194L694 194L689 193z"/>
<path style="fill:#6596b0; stroke:none;" d="M694.667 193.333L695.333 193.667L694.667 193.333z"/>
<path style="fill:#aec8d5; stroke:none;" d="M727 193L727 194L732 194L727 193M746 193L746 194L754 194L746 193M777 193L777 194L785 194L777 193M818 193L818 194L824 194L818 193M857 193L857 194L864 194L857 193z"/>
<path style="fill:#6596b0; stroke:none;" d="M864.667 193.333L865.333 193.667L864.667 193.333z"/>
<path style="fill:#b9cfdb; stroke:none;" d="M226.333 194.667L226.667 195.333L226.333 194.667z"/>
<path style="fill:#76a2b9; stroke:none;" d="M233 194L234 195L233 194z"/>
<path style="fill:#ffffff; stroke:none;" d="M294 224C290.774 218.311 287.011 223.133 282.001 222.497C276.486 221.797 274.116 215.643 273 211L295 211C294.96 196.461 278.452 185.36 269.009 201.004C258.486 218.438 278.396 232.741 294 224M299 194L299 198L305 199C305 206.243 308.355 221.508 299 223L299 227L315 227L315 223L310 223L310 212C310.005 209.715 309.787 207.186 310.603 205.004C318.237 184.588 337.192 220.258 320 223L320 227L336 227L336 223L331 223C331 216.136 333.063 205.224 329.821 199.019C326.11 191.918 314.539 192.256 311 199L310 199L310 194L299 194M365 220C355.552 222.578 347.279 223.401 346 211L367 211C367 207.038 367.549 202.519 365.258 199.044C355.781 184.669 339.244 199.104 340.09 212C340.509 218.381 343.003 225.266 350.001 226.721C355.587 227.883 366.869 228.045 365 220z"/>
<path style="fill:#76a2b9; stroke:none;" d="M360 194L361 195L360 194z"/>
<path style="fill:#ffffff; stroke:none;" d="M372 194C372.587 197.403 373.649 198.272 377 199L377 223L372 223L372 227L388 227L388 223L383 223C383 213.034 380.559 199.736 394 199L394 194L383 198L383 194L372 194z"/>
<path style="fill:#94b6c8; stroke:none;" d="M394 194L394 197L395 197L394 194z"/>
<path style="fill:#b9cfdb; stroke:none;" d="M404.667 194.333L405.333 194.667L404.667 194.333z"/>
<path style="fill:#ffffff; stroke:none;" d="M400 204L405 204C407.912 194.567 418.081 198.781 419 207C413.549 207 406.813 206.277 402.228 209.879C397.585 213.527 397.669 223.02 403.059 225.972C408.358 228.875 414.781 226.367 419 223C420.722 227.284 423.774 226.985 428 227L428 223L425 223C425 215.982 427.535 202.821 422.566 197.228C415.566 189.348 400.124 193.513 400 204z"/>
<path style="fill:#76a2b9; stroke:none;" d="M454 194L457 199L457 198L454 194z"/>
<path style="fill:#ffffff; stroke:none;" d="M455 194C455.587 197.403 456.649 198.272 460 199L460 223L455 223L455 227L471 227L471 223L466 223L466 194L455 194M473 194L473 198C482.685 201.05 487.249 242.911 497.717 218C498.826 215.361 499.774 212.667 500.811 210C502.365 206.002 504.247 202.236 505 198L509 198L509 194L495 194L495 198L499 198L492 219L491 219L483 198L487 198L487 194L473 194z"/>
<path style="fill:#76a2b9; stroke:none;" d="M487 194L487 198L488 198L487 194M494 194L494 198L495 198L494 194z"/>
<path style="fill:#ffffff; stroke:none;" d="M538 224C534.773 218.311 531.011 223.133 526.001 222.497C520.486 221.797 518.116 215.643 517 211L539 211C538.96 196.461 522.452 185.36 513.009 201.004C502.486 218.438 522.396 232.741 538 224z"/>
<path style="fill:#b9cfdb; stroke:none;" d="M572.333 194.667L572.667 195.333L572.333 194.667z"/>
<path style="fill:#ffffff; stroke:none;" d="M640 194L640 198C649.686 201.05 654.249 242.911 664.717 218C665.826 215.361 666.774 212.667 667.811 210C669.365 206.002 671.247 202.236 672 198L676 198L676 194L662 194L662 198L666 198L659 219L658 219L650 198L654 198L654 194L640 194z"/>
<path style="fill:#76a2b9; stroke:none;" d="M654 194L654 198L655 198L654 194M661 194L661 198L662 198L661 194z"/>
<path style="fill:#ffffff; stroke:none;" d="M703 220C693.552 222.578 685.279 223.401 684 211L705 211C705 207.038 705.549 202.519 703.258 199.044C693.781 184.669 677.244 199.104 678.09 212C678.509 218.381 681.003 225.266 688.001 226.721C693.587 227.883 704.868 228.045 703 220z"/>
<path style="fill:#76a2b9; stroke:none;" d="M698 194L699 195L698 194z"/>
<path style="fill:#ffffff; stroke:none;" d="M710 194C710.588 197.403 711.649 198.272 715 199L715 223L710 223L710 227L726 227L726 223L721 223C721 213.034 718.559 199.736 732 199L732 194L721 198L721 194L710 194z"/>
<path style="fill:#94b6c8; stroke:none;" d="M732 194L732 197L733 197L732 194z"/>
<path style="fill:#ffffff; stroke:none;" d="M742 217L737 217C737.04 228.444 756.739 232.555 761.258 221.895C767.579 206.983 745.984 212.044 744.631 202.965C743.552 195.725 754.46 198.881 756 204L761 204C760.958 192.178 741.935 188.901 737.747 200.015C732.711 213.381 753.872 209.146 755.079 218.01C756.114 225.617 743.699 222.856 742 217z"/>
<path style="fill:#b9cfdb; stroke:none;" d="M773.667 194.333L774.333 194.667L773.667 194.333z"/>
<path style="fill:#ffffff; stroke:none;" d="M769 204L774 204C776.912 194.567 787.081 198.781 788 207C782.549 207 775.812 206.277 771.228 209.879C766.585 213.527 766.669 223.02 772.059 225.972C777.358 228.875 783.781 226.367 788 223C789.722 227.284 792.774 226.985 797 227L797 223L794 223C794 215.982 796.535 202.821 791.566 197.228C784.566 189.348 769.124 193.513 769 204z"/>
<path style="fill:#76a2b9; stroke:none;" d="M801 194L801 198L802 198L801 194z"/>
<path style="fill:#ffffff; stroke:none;" d="M802 194C802.588 197.403 803.649 198.272 807 199L807 223L802 223L802 227L818 227L818 223C805.392 220.989 812.124 199.385 824 199L824 194L812 198L812 194L802 194z"/>
<path style="fill:#aec8d5; stroke:none;" d="M812 194L814 198L812 194z"/>
<path style="fill:#5088a5; stroke:none;" d="M824.333 194.667L824.667 195.333L824.333 194.667z"/>
<path style="fill:#aec8d5; stroke:none;" d="M827 194L827 198L828 198L827 194z"/>
<path style="fill:#ffffff; stroke:none;" d="M828 194C828.588 197.403 829.649 198.272 833 199C833 206.161 836.074 220.031 828 223L828 227L844 227L844 223C834.115 221.424 838 201.747 838 194L828 194z"/>
<path style="fill:#d9e5eb; stroke:none;" d="M838 194L838 222L839 222L838 194z"/>
<path style="fill:#ffffff; stroke:none;" d="M850 204L855 204C857.769 194.677 867.793 199.207 869 207C863.838 207 857.613 206.076 853.055 209.009C847.689 212.462 845.788 222.321 852.133 225.972C857.675 229.161 864.369 226.103 869 223L869 227L878 227L878 223L874 223C874 216.237 876.544 202.925 872.107 197.394C865.354 188.978 850.123 193.612 850 204z"/>
<path style="fill:#76a2b9; stroke:none;" d="M868 194L869 195L868 194M289 195L290 196L289 195z"/>
<path style="fill:#86acc1; stroke:none;" d="M385 195L386 196L385 195z"/>
<path style="fill:#76a2b9; stroke:none;" d="M533 195L534 196L533 195z"/>
<path style="fill:#86acc1; stroke:none;" d="M723 195L724 196L723 195z"/>
<path style="fill:#5088a5; stroke:none;" d="M232.333 196.667L232.667 197.333L232.333 196.667z"/>
<path style="fill:#86acc1; stroke:none;" d="M345 196L346 197L345 196M384 196L385 197L384 196M683 196L684 197L683 196M722 196L723 197L722 196M850 196L851 197L850 196z"/>
<path style="fill:#d9e5eb; stroke:none;" d="M225 197L225 211L226 211L225 197z"/>
<path style="fill:#86acc1; stroke:none;" d="M577 197L578 198L577 197M608 197L609 198L608 197z"/>
<path style="fill:#76a2b9; stroke:none;" d="M849 197L849 204L850 204L849 197z"/>
<path style="fill:#86acc1; stroke:none;" d="M872 197L873 198L872 197M279 198L279 199L284 199L279 198z"/>
<path style="fill:#76a2b9; stroke:none;" d="M292 198L293 199L292 198z"/>
<path style="fill:#b9cfdb; stroke:none;" d="M300.667 198.333L301.333 198.667L300.667 198.333z"/>
<path style="fill:#76a2b9; stroke:none;" d="M310 198L311 199L310 198z"/>
<path style="fill:#aec8d5; stroke:none;" d="M316 198L316 199L321 199L316 198z"/>
<path style="fill:#86acc1; stroke:none;" d="M343 198L344 199L343 198z"/>
<path style="fill:#76a2b9; stroke:none;" d="M352 198L352 199L356 199L352 198M372.667 198.333L373.333 198.667L372.667 198.333M408 198L408 199L414 199L408 198z"/>
<path style="fill:#aec8d5; stroke:none;" d="M431 198L431 199L436 199L431 198M443 198L443 199L450 199L443 198z"/>
<path style="fill:#76a2b9; stroke:none;" d="M474 198L474 199L477 199L474 198z"/>
<path style="fill:#94b6c8; stroke:none;" d="M483 201L484 201L486 199C483.86 197.882 483.473 198.749 483 201M496 198L496 199L498 201L499 201L496 198z"/>
<path style="fill:#76a2b9; stroke:none;" d="M505 198L505 199L508 199L505 198z"/>
<path style="fill:#86acc1; stroke:none;" d="M523 198L523 199L528 199L523 198z"/>
<path style="fill:#76a2b9; stroke:none;" d="M536 198L537 199L536 198z"/>
<path style="fill:#aec8d5; stroke:none;" d="M617 198L617 199L622 199L617 198z"/>
<path style="fill:#76a2b9; stroke:none;" d="M641 198L641 199L644 199L641 198z"/>
<path style="fill:#94b6c8; stroke:none;" d="M650 201L651 201L653 199C650.86 197.882 650.473 198.749 650 201M663 198L663 199L665 201L666 201L663 198z"/>
<path style="fill:#76a2b9; stroke:none;" d="M672 198L672 199L675 199L672 198z"/>
<path style="fill:#86acc1; stroke:none;" d="M681 198L682 199L681 198z"/>
<path style="fill:#76a2b9; stroke:none;" d="M690 198L690 199L694 199L690 198M710.667 198.333L711.333 198.667L710.667 198.333M746 198L746 199L752 199L746 198M777 198L777 199L783 199L777 198z"/>
<path style="fill:#86acc1; stroke:none;" d="M802.667 198.333L803.333 198.667L802.667 198.333M828.667 198.333L829.333 198.667L828.667 198.333z"/>
<path style="fill:#76a2b9; stroke:none;" d="M858 198L858 199L863 199L858 198M231 199L231 207L232 207L231 199z"/>
<path style="fill:#00517c; stroke:none;" d="M274 207L288 207C287.414 196.398 275.935 197.444 274 207z"/>
<path style="fill:#86acc1; stroke:none;" d="M285 199L286 200L285 199z"/>
<path style="fill:#d9e5eb; stroke:none;" d="M304 199L304 222L305 222L304 199z"/>
<path style="fill:#76a2b9; stroke:none;" d="M314 199L315 200L314 199z"/>
<path style="fill:#86acc1; stroke:none;" d="M350 199L351 200L350 199z"/>
<path style="fill:#00517c; stroke:none;" d="M347 207L361 207C360.218 196.663 348.331 197.13 347 207z"/>
<path style="fill:#aec8d5; stroke:none;" d="M388 199L388 200L394 200L388 199z"/>
<path style="fill:#86acc1; stroke:none;" d="M416 199L417 200L416 199z"/>
<path style="fill:#aec8d5; stroke:none;" d="M436 199L436 222L437 222L436 199M442 199L442 220L443 220L442 199z"/>
<path style="fill:#76a2b9; stroke:none;" d="M459 199C459 205.647 461.122 216.559 457 222L457 223C461.946 221.94 461.29 202.974 459 199z"/>
<path style="fill:#00517c; stroke:none;" d="M518 207L532 207C531.414 196.397 519.935 197.444 518 207z"/>
<path style="fill:#86acc1; stroke:none;" d="M529 199L530 200L529 199z"/>
<path style="fill:#76a2b9; stroke:none;" d="M583 199L584 200L583 199M615 199L616 200L615 199z"/>
<path style="fill:#00517c; stroke:none;" d="M616.109 199.743C606.653 203.73 610.296 227.054 622.772 221.258C629.811 217.987 627.788 194.819 616.109 199.743z"/>
<path style="fill:#86acc1; stroke:none;" d="M688 199L689 200L688 199z"/>
<path style="fill:#00517c; stroke:none;" d="M685 207L699 207C698.218 196.663 686.331 197.13 685 207z"/>
<path style="fill:#aec8d5; stroke:none;" d="M726 199L726 200L732 200L726 199z"/>
<path style="fill:#86acc1; stroke:none;" d="M785 199L786 200L785 199z"/>
<path style="fill:#76a2b9; stroke:none;" d="M806 199C806 205.647 808.122 216.559 804 222L804 223C808.946 221.94 808.29 202.974 806 199z"/>
<path style="fill:#aec8d5; stroke:none;" d="M817 199L817 200L824 200L817 199M832 199L832 222L833 222L832 199z"/>
<path style="fill:#76a2b9; stroke:none;" d="M856 199L857 200L856 199z"/>
<path style="fill:#86acc1; stroke:none;" d="M323 200L324 201L323 200z"/>
<path style="fill:#94b6c8; stroke:none;" d="M405 200L405 203L406 203L405 200z"/>
<path style="fill:#86acc1; stroke:none;" d="M624 200L625 201L624 200z"/>
<path style="fill:#76a2b9; stroke:none;" d="M755 200L756 201L755 200z"/>
<path style="fill:#94b6c8; stroke:none;" d="M774 200L774 203L775 203L774 200z"/>
<path style="fill:#76a2b9; stroke:none;" d="M348 201L349 202L348 201z"/>
<path style="fill:#86acc1; stroke:none;" d="M625 201L626 202L625 201z"/>
<path style="fill:#76a2b9; stroke:none;" d="M686 201L687 202L686 201M743 201L743 204L744 204L743 201z"/>
<path style="fill:#aec8d5; stroke:none;" d="M874 201C874 206.561 871.646 219.196 876 223L874 201z"/>
<path style="fill:#86acc1; stroke:none;" d="M324 202L325 203L324 202z"/>
<path style="fill:#76a2b9; stroke:none;" d="M626 202L626 219L627 219L626 202z"/>
<path style="fill:#aec8d5; stroke:none;" d="M868 202L868 207L869 207L868 202z"/>
<path style="fill:#76a2b9; stroke:none;" d="M288 203L288 207L289 207L288 203M310 203C310 207.787 307.571 221.837 313 223L313 222L310 203M331 203C331 207.787 328.571 221.837 334 223L334 222L331 203z"/>
<path style="fill:#aec8d5; stroke:none;" d="M340.333 203.667L340.667 204.333L340.333 203.667z"/>
<path style="fill:#d9e5eb; stroke:none;" d="M367 203L367 211L346 211L346 212L368 212L367 203z"/>
<path style="fill:#76a2b9; stroke:none;" d="M532 203L532 207L533 207L532 203z"/>
<path style="fill:#aec8d5; stroke:none;" d="M678.333 203.667L678.667 204.333L678.333 203.667z"/>
<path style="fill:#d9e5eb; stroke:none;" d="M705 203L705 211L684 211L684 212L706 212L705 203z"/>
<path style="fill:#aec8d5; stroke:none;" d="M361 204L361 207L362 207L361 204z"/>
<path style="fill:#76a2b9; stroke:none;" d="M400 204L400 205L405 205L400 204z"/>
<path style="fill:#aec8d5; stroke:none;" d="M699 204L699 207L700 207L699 204z"/>
<path style="fill:#76a2b9; stroke:none;" d="M756 204L756 205L761 205L756 204M769 204L769 205L774 205L769 204z"/>
<path style="fill:#d9e5eb; stroke:none;" d="M812 204L812 222L813 222L812 204z"/>
<path style="fill:#76a2b9; stroke:none;" d="M850 204L850 205L855 205L850 204M245 205L245 210L246 210L245 205z"/>
<path style="fill:#d9e5eb; stroke:none;" d="M246 205L246 206L260 206L246 205z"/>
<path style="fill:#aec8d5; stroke:none;" d="M260 205L260 223L261 223L260 205M273.333 205.667L273.667 206.333L273.333 205.667z"/>
<path style="fill:#d9e5eb; stroke:none;" d="M325 205L325 222L326 222L325 205z"/>
<path style="fill:#76a2b9; stroke:none;" d="M346.333 205.667L346.667 206.333L346.333 205.667z"/>
<path style="fill:#aec8d5; stroke:none;" d="M517.333 205.667L517.667 206.333L517.333 205.667z"/>
<path style="fill:#86acc1; stroke:none;" d="M574 205L575 206L574 205z"/>
<path style="fill:#5088a5; stroke:none;" d="M611.333 205.667L611.667 206.333L611.333 205.667z"/>
<path style="fill:#76a2b9; stroke:none;" d="M684.333 205.667L684.667 206.333L684.333 205.667z"/>
<path style="fill:#94b6c8; stroke:none;" d="M406.667 207.333L407.333 207.667L406.667 207.333z"/>
<path style="fill:#b9cfdb; stroke:none;" d="M567.333 207.667L567.667 208.333L567.333 207.667z"/>
<path style="fill:#86acc1; stroke:none;" d="M586 207L587 208L586 207z"/>
<path style="fill:#76a2b9; stroke:none;" d="M604 207L604 215L605 215L604 207z"/>
<path style="fill:#86acc1; stroke:none;" d="M738 207L739 208L738 207z"/>
<path style="fill:#76a2b9; stroke:none;" d="M749.667 207.333L750.333 207.667L749.667 207.333z"/>
<path style="fill:#94b6c8; stroke:none;" d="M775.667 207.333L776.333 207.667L775.667 207.333z"/>
<path style="fill:#76a2b9; stroke:none;" d="M339 208L339 213L340 213L339 208M677 208L677 213L678 213L677 208z"/>
<path style="fill:#5088a5; stroke:none;" d="M753.667 208.333L754.333 208.667L753.667 208.333z"/>
<path style="fill:#76a2b9; stroke:none;" d="M402 209L403 210L402 209M740 209L741 210L740 209z"/>
<path style="fill:#86acc1; stroke:none;" d="M756 209L757 210L756 209z"/>
<path style="fill:#76a2b9; stroke:none;" d="M771 209L772 210L771 209z"/>
<path style="fill:#aec8d5; stroke:none;" d="M254 210L254 221L255 221L254 210z"/>
<path style="fill:#76a2b9; stroke:none;" d="M481 210L482 211L481 210M648 210L649 211L648 210M758 210L759 211L758 210z"/>
<path style="fill:#d9e5eb; stroke:none;" d="M273 211L273 212L295 212L273 211z"/>
<path style="fill:#76a2b9; stroke:none;" d="M409 211L409 212L419 212L409 211z"/>
<path style="fill:#d9e5eb; stroke:none;" d="M517 211L517 212L539 212L517 211z"/>
<path style="fill:#76a2b9; stroke:none;" d="M778 211L778 212L788 212L778 211M859 211L859 212L868 212L859 211z"/>
<path style="fill:#aec8d5; stroke:none;" d="M868 211L868 218L869 218L868 211z"/>
<path style="fill:#76a2b9; stroke:none;" d="M273.333 212.667L273.667 213.333L273.333 212.667z"/>
<path style="fill:#00517c; stroke:none;" d="M419 212C416.685 212 414.306 211.855 411.999 212.059C397.757 213.315 411.201 229.667 417.972 217.896C419.014 216.084 418.935 214.009 419 212z"/>
<path style="fill:#76a2b9; stroke:none;" d="M517.333 212.667L517.667 213.333L517.333 212.667z"/>
<path style="fill:#aec8d5; stroke:none;" d="M747 212L747 213L750 213L747 212z"/>
<path style="fill:#00517c; stroke:none;" d="M788 212C785.685 212 783.307 211.855 780.999 212.059C766.757 213.315 780.201 229.667 786.972 217.896C788.014 216.084 787.935 214.009 788 212z"/>
<path style="fill:#76a2b9; stroke:none;" d="M857 212L858 213L857 212z"/>
<path style="fill:#00517c; stroke:none;" d="M868 212C865.69 212 863.301 211.847 861.002 212.109C846.165 213.801 862.127 229.558 867.397 217.791C868.183 216.036 867.978 213.866 868 212z"/>
<path style="fill:#76a2b9; stroke:none;" d="M499 213L500 214L499 213M666 213L667 214L666 213z"/>
<path style="fill:#b9cfdb; stroke:none;" d="M848.333 213.667L848.667 214.333L848.333 213.667z"/>
<path style="fill:#94b6c8; stroke:none;" d="M346.333 214.667L346.667 215.333L346.333 214.667M684.333 214.667L684.667 215.333L684.333 214.667z"/>
<path style="fill:#86acc1; stroke:none;" d="M267.333 215.667L267.667 216.333L267.333 215.667z"/>
<path style="fill:#b9cfdb; stroke:none;" d="M340 215L340 218L341 218L340 215z"/>
<path style="fill:#aec8d5; stroke:none;" d="M398 215L398 221L399 221L398 215z"/>
<path style="fill:#86acc1; stroke:none;" d="M511.333 215.667L511.667 216.333L511.333 215.667z"/>
<path style="fill:#b9cfdb; stroke:none;" d="M678 215L678 218L679 218L678 215z"/>
<path style="fill:#aec8d5; stroke:none;" d="M762 215L762 220L763 220L762 215M767 215L767 221L768 221L767 215M404 216L404 220L405 220L404 216z"/>
<path style="fill:#86acc1; stroke:none;" d="M570 216L571 217L570 216z"/>
<path style="fill:#aec8d5; stroke:none;" d="M773 216L773 220L774 220L773 216z"/>
<path style="fill:#86acc1; stroke:none;" d="M228 218L229 219L228 218z"/>
<path style="fill:#76a2b9; stroke:none;" d="M497 218L498 219L497 218M664 218L665 219L664 218M625 219L626 220L625 219z"/>
<path style="fill:#94b6c8; stroke:none;" d="M742.333 219.667L742.667 220.333L742.333 219.667z"/>
<path style="fill:#5088a5; stroke:none;" d="M496.333 220.667L496.667 221.333L496.333 220.667M663.333 220.667L663.667 221.333L663.333 220.667z"/>
<path style="fill:#76a2b9; stroke:none;" d="M755 220L756 221L755 220M240 221L241 222L240 221z"/>
<path style="fill:#b9cfdb; stroke:none;" d="M251.667 221.333L252.333 221.667L251.667 221.333z"/>
<path style="fill:#76a2b9; stroke:none;" d="M342 221L343 222L342 221M406 221L407 222L406 221z"/>
<path style="fill:#aec8d5; stroke:none;" d="M568 221L568 223L570 223L568 221z"/>
<path style="fill:#94b6c8; stroke:none;" d="M591 221L590 223L592 223L591 221z"/>
<path style="fill:#76a2b9; stroke:none;" d="M680 221L681 222L680 221M775 221L776 222L775 221z"/>
<path style="fill:#5088a5; stroke:none;" d="M848.333 221.667L848.667 222.333L848.333 221.667z"/>
<path style="fill:#aec8d5; stroke:none;" d="M243 222L243 223L249 223L243 222z"/>
<path style="fill:#76a2b9; stroke:none;" d="M270 222L271 223L270 222M279 222L279 223L285 223L279 222M301 222L301 223L304 223L301 222M322 222L322 223L325 223L322 222M352 222L352 223L358 223L352 222z"/>
<path style="fill:#aec8d5; stroke:none;" d="M366.333 222.667L366.667 223.333L366.333 222.667z"/>
<path style="fill:#86acc1; stroke:none;" d="M374 222L374 223L377 223L374 222M383 222L383 223L386 223L383 222z"/>
<path style="fill:#5088a5; stroke:none;" d="M425.667 222.333L426.333 222.667L425.667 222.333z"/>
<path style="fill:#76a2b9; stroke:none;" d="M444 222L445 223L444 222M448 222L448 223L451 223L448 222z"/>
<path style="fill:#94b6c8; stroke:none;" d="M466 222L466 223L469 223L466 222z"/>
<path style="fill:#76a2b9; stroke:none;" d="M486 222L487 223L486 222M514 222L515 223L514 222M523 222L523 223L529 223L523 222M560.667 222.333L561.333 222.667L560.667 222.333z"/>
<path style="fill:#6596b0; stroke:none;" d="M598.667 222.333L599.333 222.667L598.667 222.333z"/>
<path style="fill:#aec8d5; stroke:none;" d="M617 222L617 223L622 223L617 222z"/>
<path style="fill:#94b6c8; stroke:none;" d="M634 222L634 223L637 223L634 222z"/>
<path style="fill:#76a2b9; stroke:none;" d="M653 222L654 223L653 222M690 222L690 223L696 223L690 222z"/>
<path style="fill:#aec8d5; stroke:none;" d="M704.333 222.667L704.667 223.333L704.333 222.667z"/>
<path style="fill:#86acc1; stroke:none;" d="M712 222L712 223L715 223L712 222M721 222L721 223L724 223L721 222z"/>
<path style="fill:#aec8d5; stroke:none;" d="M744.667 222.333L745.333 222.667L744.667 222.333z"/>
<path style="fill:#5088a5; stroke:none;" d="M746.667 222.333L747.333 222.667L746.667 222.333z"/>
<path style="fill:#86acc1; stroke:none;" d="M751.667 222.333L752.333 222.667L751.667 222.333z"/>
<path style="fill:#5088a5; stroke:none;" d="M794.667 222.333L795.333 222.667L794.667 222.333z"/>
<path style="fill:#76a2b9; stroke:none;" d="M813 222L813 223L816 223L813 222M829.667 222.333L830.333 222.667L829.667 222.333z"/>
<path style="fill:#86acc1; stroke:none;" d="M839 222L839 223L842 223L839 222z"/>
<path style="fill:#b9cfdb; stroke:none;" d="M857 222L857 223L862 223L857 222z"/>
<path style="fill:#a1bfcf; stroke:none;" d="M884 222L884 223L887 223L884 222M893 222L893 223L896 223L893 222z"/>
<path style="fill:#76a2b9; stroke:none;" d="M315 223L315 227L316 227L315 223M336 223L336 227L337 227L336 223z"/>
<path style="fill:#aec8d5; stroke:none;" d="M428 223L428 227L429 227L428 223z"/>
<path style="fill:#76a2b9; stroke:none;" d="M454 223L454 227L455 227L454 223z"/>
<path style="fill:#86acc1; stroke:none;" d="M495 223L496 224L495 223z"/>
<path style="fill:#76a2b9; stroke:none;" d="M558 223L558 227L559 227L558 223z"/>
<path style="fill:#aec8d5; stroke:none;" d="M571 223L571 227L572 227L571 223z"/>
<path style="fill:#76a2b9; stroke:none;" d="M588 223L588 227L589 227L588 223z"/>
<path style="fill:#aec8d5; stroke:none;" d="M601 223L601 227L602 227L601 223z"/>
<path style="fill:#86acc1; stroke:none;" d="M662 223L663 224L662 223z"/>
<path style="fill:#aec8d5; stroke:none;" d="M797 223L797 227L798 227L797 223z"/>
<path style="fill:#76a2b9; stroke:none;" d="M801 223L801 227L802 227L801 223z"/>
<path style="fill:#aec8d5; stroke:none;" d="M827 223L827 227L828 227L827 223z"/>
<path style="fill:#86acc1; stroke:none;" d="M867 223L869 225L869 223L867 223z"/>
<path style="fill:#76a2b9; stroke:none;" d="M272 224L273 225L272 224z"/>
<path style="fill:#86acc1; stroke:none;" d="M400 224L401 225L400 224z"/>
<path style="fill:#76a2b9; stroke:none;" d="M516 224L517 225L516 224z"/>
<path style="fill:#86acc1; stroke:none;" d="M769 224L770 225L769 224z"/>
<path style="fill:#76a2b9; stroke:none;" d="M256 225L257 226L256 225M291 225L292 226L291 225M401 225L402 226L401 225z"/>
<path style="fill:#a1bfcf; stroke:none;" d="M419.333 225.667L419.667 226.333L419.333 225.667z"/>
<path style="fill:#5088a5; stroke:none;" d="M451.333 225.667L451.667 226.333L451.333 225.667z"/>
<path style="fill:#76a2b9; stroke:none;" d="M535 225L536 226L535 225z"/>
<path style="fill:#86acc1; stroke:none;" d="M758 225L759 226L758 225z"/>
<path style="fill:#76a2b9; stroke:none;" d="M770 225L771 226L770 225z"/>
<path style="fill:#a1bfcf; stroke:none;" d="M788.333 225.667L788.667 226.333L788.333 225.667z"/>
<path style="fill:#aec8d5; stroke:none;" d="M241 227L241 228L249 228L241 227z"/>
<path style="fill:#6596b0; stroke:none;" d="M249.667 227.333L250.333 227.667L249.667 227.333z"/>
<path style="fill:#aec8d5; stroke:none;" d="M278 227L278 228L285 228L278 227z"/>
<path style="fill:#5088a5; stroke:none;" d="M285.667 227.333L286.333 227.667L285.667 227.333z"/>
<path style="fill:#aec8d5; stroke:none;" d="M351 227L351 228L359 228L351 227M405 227L405 228L412 228L405 227M442 227L442 228L447 228L442 227z"/>
<path style="fill:#5088a5; stroke:none;" d="M447.667 227.333L448.333 227.667L447.667 227.333z"/>
<path style="fill:#aec8d5; stroke:none;" d="M522 227L522 228L529 228L522 227z"/>
<path style="fill:#5088a5; stroke:none;" d="M529.667 227.333L530.333 227.667L529.667 227.333z"/>
<path style="fill:#aec8d5; stroke:none;" d="M614 227L614 228L621 228L614 227M689 227L689 228L697 228L689 227M745 227L745 228L754 228L745 227M774 227L774 228L781 228L774 227M855 227L855 228L861 228L855 227z"/>
<path style="fill:#ffffff; stroke:none;" d="M539 254L539 258C548.677 260.018 548.784 296.44 539 298L539 302L555 302L555 298L550 298L556 287L563 298L561 302L576 302L576 298C561.81 295.792 557.354 277.392 573 273L573 269L559 269L562 273L550 285L550 254L539 254z"/>
<path style="fill:#76a2b9; stroke:none;" d="M550 254L550 285L551 285C551.907 276.749 553.207 261.642 550 254z"/>
<path style="fill:#aec8d5; stroke:none;" d="M653 256L653 257L661 257L653 256z"/>
<path style="fill:#5088a5; stroke:none;" d="M661.667 256.333L662.333 256.667L661.667 256.333z"/>
<path style="fill:#76a2b9; stroke:none;" d="M321 257L324 262L324 261L321 257z"/>
<path style="fill:#ffffff; stroke:none;" d="M322 257C322.587 260.403 323.649 261.272 327 262C327 270.157 331.149 295.223 322 298L322 302L338 302L338 298C327.946 296.397 332 274.94 332 267L333 267C337.071 276.436 349.057 301.168 360 302C360 292.848 355.217 263.249 366 261L366 257L350 257C350.587 260.403 351.649 261.272 355 262L355 291C345.345 277.72 340.304 257 322 257z"/>
<path style="fill:#76a2b9; stroke:none;" d="M333 257L334 258L333 257z"/>
<path style="fill:#aec8d5; stroke:none;" d="M349 257L349 261L350 261L349 257z"/>
<path style="fill:#ffffff; stroke:none;" d="M673 281L659 281L659 285L668 285C667.999 295.138 661.036 302.571 651.044 294.581C640.982 286.535 642.082 266.907 655.001 262.163C659.009 260.691 662.993 262.411 667 263L667 270L672 270C671.999 257.403 657.757 251.511 647.004 259.434C638.714 265.541 638.767 274.651 639.015 284C639.379 297.755 660.1 310.464 671.397 299.03C674.885 295.499 673 285.631 673 281z"/>
<path style="fill:#6596b0; stroke:none;" d="M665.667 257.333L666.333 257.667L665.667 257.333z"/>
<path style="fill:#ffffff; stroke:none;" d="M683 298L679 298L679 302L692 302L689 298C692.222 287.006 700.194 289 710 289L712 298L709 302L722 302L722 298C709.967 291.153 712.887 268.259 703.914 258.604C699.708 254.079 696.2 260.741 694.951 264.001C690.851 274.699 684.148 286.55 683 298M726 257L726 261L732 262C732 270.409 736.406 296.34 726 298L726 302L742 302L742 298L737 298L737 268L738 268C742.418 277.453 753.688 301.625 765 302C765 293.35 760.527 263.876 770 261L770 257L754 257L754 261C764.085 263.103 760 283.807 760 292C749.849 278.027 745.183 257 726 257z"/>
<path style="fill:#76a2b9; stroke:none;" d="M770 257L770 261L771 261L770 257z"/>
<path style="fill:#a1bfcf; stroke:none;" d="M540 258L540 259L543 259L540 258z"/>
<path style="fill:#d9e5eb; stroke:none;" d="M544 259L544 297L545 297C545 286.089 548.211 269.036 544 259z"/>
<path style="fill:#86acc1; stroke:none;" d="M670 259L671 260L670 259z"/>
<path style="fill:#d9e5eb; stroke:none;" d="M406 260L406 269L407 269L407 261L412 261L406 260z"/>
<path style="fill:#76a2b9; stroke:none;" d="M412 260L412 269L413 269L412 260M350.667 261.333L351.333 261.667L350.667 261.333z"/>
<path style="fill:#94b6c8; stroke:none;" d="M362 261L362 262L365 262L362 261z"/>
<path style="fill:#ffffff; stroke:none;" d="M407 261L407 269L401 269L401 273C413.009 274.915 403.262 292.313 408.179 299.682C410.58 303.281 417.287 302 421 302L421 298C408.414 297.59 412 282.108 412 273L419 273L419 269L412 269L412 261L407 261z"/>
<path style="fill:#aec8d5; stroke:none;" d="M656 261L656 262L661 262L656 261z"/>
<path style="fill:#76a2b9; stroke:none;" d="M672 261L672 270L673 270L672 261z"/>
<path style="fill:#94b6c8; stroke:none;" d="M727.667 261.333L728.333 261.667L727.667 261.333z"/>
<path style="fill:#76a2b9; stroke:none;" d="M740 261L741 262L740 261z"/>
<path style="fill:#94b6c8; stroke:none;" d="M755 261L755 262L758 262L755 261z"/>
<path style="fill:#aec8d5; stroke:none;" d="M766.667 261.333L767.333 261.667L766.667 261.333z"/>
<path style="fill:#5088a5; stroke:none;" d="M768.667 261.333L769.333 261.667L768.667 261.333z"/>
<path style="fill:#76a2b9; stroke:none;" d="M326 262L326 297L327 297L326 262z"/>
<path style="fill:#d9e5eb; stroke:none;" d="M360 262L360 302L361 302C361 290.566 364.411 272.512 360 262z"/>
<path style="fill:#86acc1; stroke:none;" d="M653 262L654 263L653 262z"/>
<path style="fill:#d9e5eb; stroke:none;" d="M731 262L731 297L732 297L731 262z"/>
<path style="fill:#aec8d5; stroke:none;" d="M759 262L759 292L760 292L759 262z"/>
<path style="fill:#76a2b9; stroke:none;" d="M765 262L765 302L766 302C766 290.566 769.411 272.512 765 262z"/>
<path style="fill:#86acc1; stroke:none;" d="M651 263L652 264L651 263z"/>
<path style="fill:#76a2b9; stroke:none;" d="M666.333 263.667L666.667 264.333L666.333 263.667M338 265L339 266L338 265z"/>
<path style="fill:#00517c; stroke:none;" d="M700 266L694 284L707 284L700 266z"/>
<path style="fill:#aec8d5; stroke:none;" d="M332 267L332 297L333 297L332 267z"/>
<path style="fill:#86acc1; stroke:none;" d="M701 267L702 268L701 267z"/>
<path style="fill:#aec8d5; stroke:none;" d="M381 268L381 269L388 269L381 268M491 268L491 269L497 269L491 268z"/>
<path style="fill:#5088a5; stroke:none;" d="M497.667 268.333L498.333 268.667L497.667 268.333z"/>
<path style="fill:#aec8d5; stroke:none;" d="M531 268L531 269L536 269L531 268M588 268L588 269L597 269L588 268z"/>
<path style="fill:#76a2b9; stroke:none;" d="M612 268L612 269L618 269L612 268z"/>
<path style="fill:#86acc1; stroke:none;" d="M699 268L700 269L699 268z"/>
<path style="fill:#aec8d5; stroke:none;" d="M784 268L784 269L791 269L784 268z"/>
<path style="fill:#6596b0; stroke:none;" d="M791.667 268.333L792.333 268.667L791.667 268.333z"/>
<path style="fill:#ffffff; stroke:none;" d="M397 299C393.774 293.311 390.011 298.133 385.001 297.497C379.486 296.797 377.116 290.643 376 286L398 286C397.96 271.461 381.452 260.36 372.009 276.004C361.486 293.438 381.396 307.741 397 299z"/>
<path style="fill:#aec8d5; stroke:none;" d="M419 269L419 273L412 273L412 274L420 274L419 269z"/>
<path style="fill:#ffffff; stroke:none;" d="M424 269L424 273L428 273L436 302C446.643 301.651 446.999 285.928 451 278C451.952 281.355 452.865 284.718 454.054 288L456.657 294.999C458.032 298.875 462.539 305.77 465.856 298.852C469.614 291.013 468.533 277.429 477 273L477 269L464 269L464 273L468 273L463 293L454 269C444.215 269.321 441.745 284.829 440 293L439 293L434 273L438 273L438 269L424 269z"/>
<path style="fill:#76a2b9; stroke:none;" d="M463 269L463 273L464 273L463 269M477 269L477 273L478 273L477 269z"/>
<path style="fill:#ffffff; stroke:none;" d="M488.015 269.858C470.886 276.981 481.217 308.917 500.996 301.258C518.208 294.592 508.258 261.44 488.015 269.858M514 269C514.588 272.403 515.649 273.272 519 274L519 298L514 298L514 302L530 302L530 298L525 298C525 288.034 522.559 274.736 536 274L536 269L525 273L525 269L514 269z"/>
<path style="fill:#94b6c8; stroke:none;" d="M536 269L536 272L537 272L536 269z"/>
<path style="fill:#76a2b9; stroke:none;" d="M558 269L558 273L559 273L558 269z"/>
<path style="fill:#ffffff; stroke:none;" d="M585 292L580 292C580.043 304.091 600.974 307.236 604.485 295.957C608.811 282.061 589.96 286.926 587.497 278.791C585.399 271.862 597.132 272.792 599 279L603 279C602.959 267.308 584.719 263.789 580.607 275.015C575.772 288.219 595.333 284.167 597.654 292.128C599.742 299.287 586.999 298.891 585 292M612 269L612 275L618 275L618 269L612 269z"/>
<path style="fill:#b9cfdb; stroke:none;" d="M639.333 269.667L639.667 270.333L639.333 269.667z"/>
<path style="fill:#76a2b9; stroke:none;" d="M646 269L647 270L646 269M738 269L739 270L738 269M745 269L746 270L745 269z"/>
<path style="fill:#ffffff; stroke:none;" d="M776 292C776.042 303.983 795.816 307.097 799.967 295.985C805.21 281.947 785.814 286.945 783.346 278.791C781.003 271.053 792.7 274.338 795 279L799 279C798.959 267.279 780.748 263.766 776.604 275.005C771.948 287.633 789.262 284.586 793.248 291.274C796.322 296.43 787.605 298.718 784.133 297.258C780.701 295.815 779.939 292.678 776 292z"/>
<path style="fill:#76a2b9; stroke:none;" d="M392 270L393 271L392 270z"/>
<path style="fill:#86acc1; stroke:none;" d="M527 270L528 271L527 270z"/>
<path style="fill:#94b6c8; stroke:none;" d="M454.333 271.667L454.667 272.333L454.333 271.667z"/>
<path style="fill:#86acc1; stroke:none;" d="M526 271L527 272L526 271z"/>
<path style="fill:#d9e5eb; stroke:none;" d="M603 271L603 279L604 279L603 271z"/>
<path style="fill:#5088a5; stroke:none;" d="M645.333 271.667L645.667 272.333L645.333 271.667z"/>
<path style="fill:#86acc1; stroke:none;" d="M778 271L779 272L778 271z"/>
<path style="fill:#aec8d5; stroke:none;" d="M799 271L799 279L800 279L799 271z"/>
<path style="fill:#d9e5eb; stroke:none;" d="M638 272L638 286L639 286L638 272z"/>
<path style="fill:#5088a5; stroke:none;" d="M703.333 272.667L703.667 273.333L703.333 272.667z"/>
<path style="fill:#b9cfdb; stroke:none;" d="M709.333 272.667L709.667 273.333L709.333 272.667z"/>
<path style="fill:#76a2b9; stroke:none;" d="M740 272L741 273L740 272M777 272L778 273L777 272M343 273L344 274L343 273z"/>
<path style="fill:#86acc1; stroke:none;" d="M382 273L382 274L387 274L382 273z"/>
<path style="fill:#76a2b9; stroke:none;" d="M395 273L396 274L395 273z"/>
<path style="fill:#aec8d5; stroke:none;" d="M401 273L401 274L406 274L401 273z"/>
<path style="fill:#76a2b9; stroke:none;" d="M425 273L425 274L428 274L425 273z"/>
<path style="fill:#94b6c8; stroke:none;" d="M434 273L434 274L437 274L434 273z"/>
<path style="fill:#76a2b9; stroke:none;" d="M464.667 273.333L465.333 273.667L464.667 273.333z"/>
<path style="fill:#c4d7e1; stroke:none;" d="M466 273L467 276L468 276L468 273L466 273z"/>
<path style="fill:#76a2b9; stroke:none;" d="M474.667 273.333L475.333 273.667L474.667 273.333M492 273L492 274L497 274L492 273M514.667 273.333L515.333 273.667L514.667 273.333z"/>
<path style="fill:#86acc1; stroke:none;" d="M560.667 273.333L561.333 273.667L560.667 273.333z"/>
<path style="fill:#aec8d5; stroke:none;" d="M569 273L569 274L572 274L569 273z"/>
<path style="fill:#76a2b9; stroke:none;" d="M589 273L589 274L595 274L589 273M785 273L785 274L791 274L785 273z"/>
<path style="fill:#00517c; stroke:none;" d="M377 282L391 282C390.414 271.398 378.935 272.444 377 282z"/>
<path style="fill:#86acc1; stroke:none;" d="M388 274L389 275L388 274z"/>
<path style="fill:#d9e5eb; stroke:none;" d="M406 274L406 297L407 297L406 274z"/>
<path style="fill:#76a2b9; stroke:none;" d="M412 274L412 295L413 295L412 274z"/>
<path style="fill:#00517c; stroke:none;" d="M491.189 274.742C481.862 278.853 485.694 301.212 497.945 296.396C507.662 292.576 503.899 269.14 491.189 274.742z"/>
<path style="fill:#aec8d5; stroke:none;" d="M530 274L530 275L536 275L530 274z"/>
<path style="fill:#76a2b9; stroke:none;" d="M597 274L598 275L597 274M644 274L644 282L645 282L644 274z"/>
<path style="fill:#b9cfdb; stroke:none;" d="M434.333 275.667L434.667 276.333L434.333 275.667z"/>
<path style="fill:#76a2b9; stroke:none;" d="M507 275L508 276L507 275M598.333 275.667L598.667 276.333L598.333 275.667M338 276L339 277L338 276z"/>
<path style="fill:#86acc1; stroke:none;" d="M472.333 276.667L472.667 277.333L472.333 276.667M488 276L489 277L488 276M586 276L587 277L586 276M696 276L697 277L696 276z"/>
<path style="fill:#76a2b9; stroke:none;" d="M775 276L775 280L776 280L775 276z"/>
<path style="fill:#86acc1; stroke:none;" d="M794.333 276.667L794.667 277.333L794.333 276.667z"/>
<path style="fill:#a1bfcf; stroke:none;" d="M466.333 277.667L466.667 278.333L466.333 277.667z"/>
<path style="fill:#76a2b9; stroke:none;" d="M750 277L751 278L750 277M391 278L391 282L392 282L391 278z"/>
<path style="fill:#94b6c8; stroke:none;" d="M435.333 278.667L435.667 279.333L435.333 278.667z"/>
<path style="fill:#86acc1; stroke:none;" d="M705 278L706 279L705 278M340 279L341 280L340 279M429 279L430 280L429 279z"/>
<path style="fill:#5088a5; stroke:none;" d="M451.333 279.667L451.667 280.333L451.333 279.667z"/>
<path style="fill:#94b6c8; stroke:none;" d="M471.333 279.667L471.667 280.333L471.333 279.667z"/>
<path style="fill:#76a2b9; stroke:none;" d="M599 279L599 280L604 280L599 279M795 279L795 280L800 280L795 279z"/>
<path style="fill:#aec8d5; stroke:none;" d="M376.333 280.667L376.667 281.333L376.333 280.667z"/>
<path style="fill:#76a2b9; stroke:none;" d="M449.333 280.667L449.667 281.333L449.333 280.667M486 280L486 283L487 283L486 280z"/>
<path style="fill:#d9e5eb; stroke:none;" d="M509 280L509 288L510 288L509 280z"/>
<path style="fill:#86acc1; stroke:none;" d="M587 280L588 281L587 280z"/>
<path style="fill:#76a2b9; stroke:none;" d="M658 280L658 285L659 285L658 280z"/>
<path style="fill:#d9e5eb; stroke:none;" d="M659 280L659 281L673 281L659 280z"/>
<path style="fill:#aec8d5; stroke:none;" d="M673 280L673 298L674 298L673 280z"/>
<path style="fill:#76a2b9; stroke:none;" d="M348 281L349 282L348 281M580 281L581 282L580 281z"/>
<path style="fill:#86acc1; stroke:none;" d="M589 281L590 282L589 281z"/>
<path style="fill:#aec8d5; stroke:none;" d="M436.333 282.667L436.667 283.333L436.333 282.667M503 282L503 289L504 289L503 282z"/>
<path style="fill:#a1bfcf; stroke:none;" d="M591 282L591 283L594 283L591 282z"/>
<path style="fill:#94b6c8; stroke:none;" d="M787 282L787 283L790 283L787 282z"/>
<path style="fill:#5088a5; stroke:none;" d="M470.333 283.667L470.667 284.333L470.333 283.667z"/>
<path style="fill:#76a2b9; stroke:none;" d="M747 283L748 284L747 283z"/>
<path style="fill:#86acc1; stroke:none;" d="M792 283L793 284L792 283z"/>
<path style="fill:#b9cfdb; stroke:none;" d="M442.333 284.667L442.667 285.333L442.333 284.667z"/>
<path style="fill:#a1bfcf; stroke:none;" d="M464.333 284.667L464.667 285.333L464.333 284.667z"/>
<path style="fill:#5088a5; stroke:none;" d="M431.333 285.667L431.667 286.333L431.333 285.667z"/>
<path style="fill:#86acc1; stroke:none;" d="M561 285L562 286L561 285z"/>
<path style="fill:#aec8d5; stroke:none;" d="M667 285L667 296L668 296L667 285z"/>
<path style="fill:#76a2b9; stroke:none;" d="M755 285L756 286L755 285z"/>
<path style="fill:#d9e5eb; stroke:none;" d="M376 286L376 287L398 287L376 286z"/>
<path style="fill:#5088a5; stroke:none;" d="M447.333 286.667L447.667 287.333L447.333 286.667z"/>
<path style="fill:#76a2b9; stroke:none;" d="M469.333 286.667L469.667 287.333L469.333 286.667z"/>
<path style="fill:#86acc1; stroke:none;" d="M602 286L603 287L602 286M749 286L750 287L749 286z"/>
<path style="fill:#76a2b9; stroke:none;" d="M376.333 287.667L376.667 288.333L376.333 287.667z"/>
<path style="fill:#b9cfdb; stroke:none;" d="M441.333 287.667L441.667 288.333L441.333 287.667z"/>
<path style="fill:#76a2b9; stroke:none;" d="M555 287L556 288L555 287z"/>
<path style="fill:#aec8d5; stroke:none;" d="M590.667 287.333L591.333 287.667L590.667 287.333z"/>
<path style="fill:#76a2b9; stroke:none;" d="M603 287L604 288L603 287z"/>
<path style="fill:#94b6c8; stroke:none;" d="M785 287L785 288L788 288L785 287z"/>
<path style="fill:#76a2b9; stroke:none;" d="M432.333 288.667L432.667 289.333L432.333 288.667M486.333 288.667L486.667 289.333L486.333 288.667z"/>
<path style="fill:#94b6c8; stroke:none;" d="M509 288L509 291L510 291L509 288z"/>
<path style="fill:#86acc1; stroke:none;" d="M556 288L557 289L556 288z"/>
<path style="fill:#76a2b9; stroke:none;" d="M353 289L354 290L353 289z"/>
<path style="fill:#a1bfcf; stroke:none;" d="M438.333 289.667L438.667 290.333L438.333 289.667z"/>
<path style="fill:#86acc1; stroke:none;" d="M709 289L710 290L709 289M792 289L793 290L792 289z"/>
<path style="fill:#76a2b9; stroke:none;" d="M347 290L348 291L347 290z"/>
<path style="fill:#86acc1; stroke:none;" d="M370.333 290.667L370.667 291.333L370.333 290.667M565 290L566 291L565 290z"/>
<path style="fill:#5088a5; stroke:none;" d="M455.333 291.667L455.667 292.333L455.333 291.667z"/>
<path style="fill:#b9cfdb; stroke:none;" d="M462.333 291.667L462.667 292.333L462.333 291.667z"/>
<path style="fill:#76a2b9; stroke:none;" d="M598 291L599 292L598 291M605 291L605 294L606 294L605 291z"/>
<path style="fill:#6596b0; stroke:none;" d="M794 291L794 295L795 295L794 291z"/>
<path style="fill:#86acc1; stroke:none;" d="M445 292L446 293L445 292z"/>
<path style="fill:#a1bfcf; stroke:none;" d="M467.333 292.667L467.667 293.333L467.333 292.667z"/>
<path style="fill:#76a2b9; stroke:none;" d="M550 292L550 298L554 298L554 297L551 297L550 292M579 292L579 300L580 300L579 292z"/>
<path style="fill:#aec8d5; stroke:none;" d="M775 292L775 300L776 300L775 292z"/>
<path style="fill:#94b6c8; stroke:none;" d="M780.333 292.667L780.667 293.333L780.333 292.667z"/>
<path style="fill:#86acc1; stroke:none;" d="M349 293L350 294L349 293M508 293L509 294L508 293M641 293L642 294L641 293z"/>
<path style="fill:#5088a5; stroke:none;" d="M456.333 294.667L456.667 295.333L456.333 294.667z"/>
<path style="fill:#76a2b9; stroke:none;" d="M481 294L482 295L481 294M488 294L489 295L488 294z"/>
<path style="fill:#b9cfdb; stroke:none;" d="M800 294L800 297L801 297L800 294z"/>
<path style="fill:#5088a5; stroke:none;" d="M434.333 295.667L434.667 296.333L434.333 295.667z"/>
<path style="fill:#86acc1; stroke:none;" d="M507 295L508 296L507 295M569 295L570 296L569 295z"/>
<path style="fill:#76a2b9; stroke:none;" d="M612 295L612 296L618 296L612 295z"/>
<path style="fill:#ffffff; stroke:none;" d="M612 296L612 302L618 302L618 296L612 296z"/>
<path style="fill:#76a2b9; stroke:none;" d="M653 296L654 297L653 296z"/>
<path style="fill:#b9cfdb; stroke:none;" d="M664.667 296.333L665.333 296.667L664.667 296.333z"/>
<path style="fill:#76a2b9; stroke:none;" d="M781 296L782 297L781 296z"/>
<path style="fill:#86acc1; stroke:none;" d="M323 297L323 298L326 298L323 297z"/>
<path style="fill:#a1bfcf; stroke:none;" d="M333 297L333 298L336 298L333 297z"/>
<path style="fill:#76a2b9; stroke:none;" d="M373 297L374 298L373 297M382 297L382 298L388 298L382 297M418 297L418 298L421 298L418 297z"/>
<path style="fill:#5088a5; stroke:none;" d="M457.333 297.667L457.667 298.333L457.333 297.667z"/>
<path style="fill:#76a2b9; stroke:none;" d="M492 297L492 298L497 298L492 297z"/>
<path style="fill:#86acc1; stroke:none;" d="M516 297L516 298L519 298L516 297M525 297L525 298L528 298L525 297z"/>
<path style="fill:#94b6c8; stroke:none;" d="M541 297L541 298L544 298L541 297z"/>
<path style="fill:#76a2b9; stroke:none;" d="M571 297L571 298L574 298L571 297z"/>
<path style="fill:#a1bfcf; stroke:none;" d="M587 297L587 298L590 298L587 297z"/>
<path style="fill:#94b6c8; stroke:none;" d="M594.667 297.333L595.333 297.667L594.667 297.333z"/>
<path style="fill:#aec8d5; stroke:none;" d="M656 297L656 298L662 298L656 297z"/>
<path style="fill:#b9cfdb; stroke:none;" d="M681.667 297.333L682.333 297.667L681.667 297.333z"/>
<path style="fill:#5088a5; stroke:none;" d="M689.667 297.333L690.333 297.667L689.667 297.333z"/>
<path style="fill:#76a2b9; stroke:none;" d="M710.667 297.333L711.333 297.667L710.667 297.333z"/>
<path style="fill:#a1bfcf; stroke:none;" d="M728 297L728 298L731 298L728 297z"/>
<path style="fill:#aec8d5; stroke:none;" d="M737.667 297.333L738.333 297.667L737.667 297.333z"/>
<path style="fill:#6596b0; stroke:none;" d="M739.667 297.333L740.333 297.667L739.667 297.333z"/>
<path style="fill:#76a2b9; stroke:none;" d="M756 297L757 298L756 297z"/>
<path style="fill:#94b6c8; stroke:none;" d="M783 297L783 298L786 298L783 297z"/>
<path style="fill:#a1bfcf; stroke:none;" d="M790.667 297.333L791.333 297.667L790.667 297.333z"/>
<path style="fill:#76a2b9; stroke:none;" d="M321 298L321 302L322 302L321 298z"/>
<path style="fill:#6596b0; stroke:none;" d="M435.333 298.667L435.667 299.333L435.333 298.667z"/>
<path style="fill:#76a2b9; stroke:none;" d="M555 298L555 302L556 302L555 298z"/>
<path style="fill:#aec8d5; stroke:none;" d="M560 298L560 302L561 302L560 298z"/>
<path style="fill:#76a2b9; stroke:none;" d="M603 298L604 299L603 298z"/>
<path style="fill:#aec8d5; stroke:none;" d="M742 298L742 302L743 302L742 298z"/>
<path style="fill:#76a2b9; stroke:none;" d="M375 299L376 300L375 299M407 299L408 300L407 299M394 300L395 301L394 300z"/>
<path style="fill:#86acc1; stroke:none;" d="M465 300L466 301L465 300z"/>
<path style="fill:#76a2b9; stroke:none;" d="M669 300L670 301L669 300z"/>
<path style="fill:#86acc1; stroke:none;" d="M758 300L759 301L758 300M599 301L600 302L599 301z"/>
<path style="fill:#aec8d5; stroke:none;" d="M779.667 301.333L780.333 301.667L779.667 301.333M381 302L381 303L388 303L381 302z"/>
<path style="fill:#5088a5; stroke:none;" d="M388.667 302.333L389.333 302.667L388.667 302.333z"/>
<path style="fill:#aec8d5; stroke:none;" d="M411 302L411 303L418 303L411 302M491 302L491 303L497 303L491 302z"/>
<path style="fill:#5088a5; stroke:none;" d="M497.667 302.333L498.333 302.667L497.667 302.333z"/>
<path style="fill:#aec8d5; stroke:none;" d="M587 302L587 303L595 303L587 302z"/>
<path style="fill:#6596b0; stroke:none;" d="M595.667 302.333L596.333 302.667L595.667 302.333z"/>
<path style="fill:#aec8d5; stroke:none;" d="M654 302L654 303L662 303L654 302z"/>
<path style="fill:#6596b0; stroke:none;" d="M662.667 302.333L663.333 302.667L662.667 302.333z"/>
<path style="fill:#aec8d5; stroke:none;" d="M783 302L783 303L791 303L783 302z"/>
<path style="fill:#5088a5; stroke:none;" d="M791.667 302.333L792.333 302.667L791.667 302.333z"/>
<path style="fill:#006497; stroke:none;" d="M536 346L536 347L588 347L571 346L536 346z"/>
<path style="fill:#0176b1; stroke:none;" d="M535 347L535 352L588 352L588 351L536 351L535 347z"/>
<path style="fill:#039be5; stroke:none;" d="M536 347L536 351L588 351L588 347L536 347z"/>
<path style="fill:#8bc34a; stroke:none;" d="M491 395L494 398L494 406C474.938 395.842 479.318 433.35 493 423L501 425L498 422L498 395L491 395M644 395L644 399L648 399L648 395L644 395M653 395L656 398L653 425L663 425L660 422L660 395L653 395M665 395L668 398L665 425L675 425L672 422L672 395L665 395M428 425L436 425L434 422L435 417L447 417L448 422L446 425L454 425L445.656 404.001L441.011 397.636L436.424 404.001L428 425M586 417L583 417C579.895 426.829 569.37 418.333 569.37 411C569.37 402.988 581.222 395.109 583 406L586 406C585.815 390.466 566.008 397.426 566.008 411C566.008 423.765 585.505 432.103 586 417z"/>
<path style="fill:#00517c; stroke:none;" d="M440 403L437 414L445 414L440 403z"/>
<path style="fill:#8bc34a; stroke:none;" d="M456 404L459 407L456 425L466 425L463 422C463 418.466 462.099 413.303 464.028 410.164C468.341 403.143 472.246 412.972 471.941 416.981C471.709 420.035 469.878 422.191 469 425L478 425C474.075 416.825 476.217 397.396 462 407C461.271 403.597 459.194 404.013 456 404z"/>
<path style="fill:#599a5b; stroke:none;" d="M462 404L464 407L462 404z"/>
<path style="fill:#8bc34a; stroke:none;" d="M503 404L506 407L503 425L512 425C508.913 418.57 506.388 409.501 516 408L516 404L509 407C508.271 403.597 506.194 404.013 503 404z"/>
<path style="fill:#377f67; stroke:none;" d="M509 404L509 407L511 406L511 405L509 404z"/>
<path style="fill:#8bc34a; stroke:none;" d="M533 420C527.296 422.012 524.042 420.935 522 415L535 415C534.687 402.054 518.477 400.597 518.059 414C517.768 423.334 533.165 429.84 533 420M550 421L542 422L538 418C538.513 433.434 562.654 420.004 547.985 412.969C546.102 412.066 543.997 411.579 542 411C546.184 406.115 548.165 409.44 553 411C552.329 402.315 537.934 401.624 538.546 410C538.962 415.685 547.519 416.27 550 421M590 411L594 411C596.826 405.945 600.618 408.239 602 413C599.001 413.002 594.947 412.424 592.318 414.179C583.487 420.073 595.495 425.756 602 423L608 425L605 422C605 417.569 606.448 409.939 603.397 406.318C598.652 400.687 590.487 404.689 590 411M610 404L613 407L610 425L619 425C615.913 418.57 613.388 409.501 623 408L623 404L616 407C615.271 403.597 613.194 404.013 610 404z"/>
<path style="fill:#377f67; stroke:none;" d="M616 404L616 407L618 406L618 405L616 404z"/>
<path style="fill:#8bc34a; stroke:none;" d="M625 404L625 407L629 407L626 425L635 425L632 422C632 415.557 631.235 409.213 639 408L639 404L633 406L625 404M641 404L644 407L641 425L651 425L648 422L648 404L641 404M682.094 404.743C672.096 408.87 677.041 428.936 688.982 424.257C700.11 419.897 694.107 399.785 682.094 404.743z"/>
<path style="fill:#00517c; stroke:none;" d="M488.224 407.851C482.849 409.669 483.902 423.683 490.857 421.199C496.176 419.299 495.05 405.542 488.224 407.851z"/>
<path style="fill:#377f67; stroke:none;" d="M505 407L505 422L506 422L505 407z"/>
<path style="fill:#00517c; stroke:none;" d="M522 412L531 412C529.204 406.088 524.499 407.05 522 412z"/>
<path style="fill:#377f67; stroke:none;" d="M612 407L612 422L613 422L612 407z"/>
<path style="fill:#599a5b; stroke:none;" d="M628 407L628 422L629 422L628 407z"/>
<path style="fill:#00517c; stroke:none;" d="M683.433 408.072C678.657 410.968 680.903 424.858 687.775 420.953C693.616 417.634 690.069 404.047 683.433 408.072z"/>
<path style="fill:#377f67; stroke:none;" d="M565 408L565 414L566 414L565 408z"/>
<path style="fill:#599a5b; stroke:none;" d="M569 408L569 414L570 414L569 408M605 408L605 422L606 422L605 408z"/>
<path style="fill:#377f67; stroke:none;" d="M471 409L471 422L472 422L471 409z"/>
<path style="fill:#599a5b; stroke:none;" d="M475 409L475 422L476 422L475 409M601 409L594 412L594 413L602 413L601 409M509 410L509 422L510 422L509 410M616 410L616 422L617 422L616 410z"/>
<path style="fill:#377f67; stroke:none;" d="M632 410L632 422L633 422L632 410z"/>
<path style="fill:#498d61; stroke:none;" d="M680 411L680 417L681 417L680 411z"/>
<path style="fill:#377f67; stroke:none;" d="M480 412L480 418L481 418L480 412M484 412L484 418L485 418L484 412M676 412L676 417L677 417L676 412z"/>
<path style="fill:#2d766b; stroke:none;" d="M934 414L934 550L935 550L935 455C935 443.318 938.508 424.742 934 414z"/>
<path style="fill:#8bc34a; stroke:none;" d="M935 414L935 551L804 551L804 554L938 554L938 414L935 414z"/>
<path style="fill:#1b6771; stroke:none;" d="M938 414L938 554L939 554L939 456C939 444.056 942.607 424.98 938 414z"/>
<path style="fill:#00517c; stroke:none;" d="M594 422C598.678 421.248 600.625 419.829 601 415C595.69 415.174 594.174 416.69 594 422z"/>
<path style="fill:#377f67; stroke:none;" d="M601 415L601 419L602 419L601 415M435 419L447 419C444.382 416.004 437.618 416.004 435 419z"/>
<path style="fill:#599a5b; stroke:none;" d="M553 417L553 421L554 421L553 417M589 417L589 421L590 421L589 417z"/>
<path style="fill:#377f67; stroke:none;" d="M593 417L593 421L594 421L593 417z"/>
<path style="fill:#599a5b; stroke:none;" d="M476 422L476 423L478 425L479 425L476 422M510 422L510 423L512 425L513 425L510 422M617 422L617 423L619 425L620 425L617 422M625 422L625 425L626 425L627 422L625 422z"/>
<path style="fill:#468a63; stroke:none;" d="M803 550L803 554L804 554L804 551L935 551C924.496 546.592 906.42 550 895 550L803 550z"/>
</svg>
